<?xml version="1.0" standalone="no"?><svg xmlns="http://www.w3.org/2000/svg" viewBox="0 0 1440 320"><path fill="#e9e7e7" fill-opacity="1" d="M0,32L46.5,224L92.9,224L139.4,32L185.8,256L232.3,32L278.7,224L325.2,64L371.6,96L418.1,192L464.5,128L511,224L557.4,128L603.9,288L650.3,64L696.8,32L743.2,224L789.7,32L836.1,96L882.6,160L929,192L975.5,96L1021.9,128L1068.4,256L1114.8,256L1161.3,128L1207.7,256L1254.2,192L1300.6,160L1347.1,192L1393.5,224L1440,160L1440,0L1393.5,0L1347.1,0L1300.6,0L1254.2,0L1207.7,0L1161.3,0L1114.8,0L1068.4,0L1021.9,0L975.5,0L929,0L882.6,0L836.1,0L789.7,0L743.2,0L696.8,0L650.3,0L603.9,0L557.4,0L511,0L464.5,0L418.1,0L371.6,0L325.2,0L278.7,0L232.3,0L185.8,0L139.4,0L92.9,0L46.5,0L0,0Z"></path></svg>