<?xml version="1.0" standalone="no"?><svg xmlns="http://www.w3.org/2000/svg" viewBox="0 0 1440 320"><path fill="#e9e7e7" fill-opacity="1" d="M0,256L36.9,32L73.8,128L110.8,32L147.7,160L184.6,64L221.5,96L258.5,320L295.4,288L332.3,256L369.2,320L406.2,128L443.1,224L480,288L516.9,64L553.8,160L590.8,32L627.7,224L664.6,64L701.5,256L738.5,288L775.4,256L812.3,128L849.2,288L886.2,256L923.1,224L960,160L996.9,256L1033.8,128L1070.8,288L1107.7,128L1144.6,128L1181.5,192L1218.5,32L1255.4,288L1292.3,224L1329.2,256L1366.2,160L1403.1,256L1440,64L1440,320L1403.1,320L1366.2,320L1329.2,320L1292.3,320L1255.4,320L1218.5,320L1181.5,320L1144.6,320L1107.7,320L1070.8,320L1033.8,320L996.9,320L960,320L923.1,320L886.2,320L849.2,320L812.3,320L775.4,320L738.5,320L701.5,320L664.6,320L627.7,320L590.8,320L553.8,320L516.9,320L480,320L443.1,320L406.2,320L369.2,320L332.3,320L295.4,320L258.5,320L221.5,320L184.6,320L147.7,320L110.8,320L73.8,320L36.9,320L0,320Z"></path></svg>