<?xml version="1.0" standalone="no"?><svg xmlns="http://www.w3.org/2000/svg" viewBox="0 0 1440 320"><path fill="#1a1818" fill-opacity="1" d="M0,224L30,197.3C60,171,120,117,180,90.7C240,64,300,64,360,53.3C420,43,480,21,540,32C600,43,660,85,720,101.3C780,117,840,107,900,90.7C960,75,1020,53,1080,69.3C1140,85,1200,139,1260,165.3C1320,192,1380,192,1410,192L1440,192L1440,0L1410,0C1380,0,1320,0,1260,0C1200,0,1140,0,1080,0C1020,0,960,0,900,0C840,0,780,0,720,0C660,0,600,0,540,0C480,0,420,0,360,0C300,0,240,0,180,0C120,0,60,0,30,0L0,0Z"></path></svg>